<svg width="600" height="400" xmlns="http://www.w3.org/2000/svg">
  <rect width="600" height="400" fill="#4a3b2a"/>
  <rect x="50" y="50" width="500" height="300" fill="#6b4423" rx="10"/>
  <rect x="70" y="70" width="460" height="260" fill="#8b5a2b" rx="5"/>
  
  <!-- Brownie squares -->
  <rect x="90" y="90" width="100" height="100" fill="#3d2914" rx="3"/>
  <rect x="210" y="90" width="100" height="100" fill="#3d2914" rx="3"/>
  <rect x="330" y="90" width="100" height="100" fill="#3d2914" rx="3"/>
  <rect x="450" y="90" width="100" height="100" fill="#3d2914" rx="3"/>
  
  <rect x="90" y="210" width="100" height="100" fill="#3d2914" rx="3"/>
  <rect x="210" y="210" width="100" height="100" fill="#3d2914" rx="3"/>
  <rect x="330" y="210" width="100" height="100" fill="#3d2914" rx="3"/>
  <rect x="450" y="210" width="100" height="100" fill="#3d2914" rx="3"/>
  
  <!-- Chocolate chips -->
  <circle cx="140" cy="140" r="4" fill="#2a1f0f"/>
  <circle cx="170" cy="120" r="3" fill="#2a1f0f"/>
  <circle cx="260" cy="130" r="4" fill="#2a1f0f"/>
  <circle cx="380" cy="140" r="3" fill="#2a1f0f"/>
  <circle cx="480" cy="125" r="4" fill="#2a1f0f"/>
  
  <text x="300" y="380" text-anchor="middle" fill="white" font-family="serif" font-size="24" font-weight="bold">Ultimate Fudgy Brownies</text>
</svg>